<svg xmlns="http://www.w3.org/2000/svg" viewBox="0 0 304 500"><defs><style>.cls-1{fill:#fad4df;}.cls-2{fill:#fff;}.cls-3{fill:#f9a5c1;}</style></defs><title>Artboard 1</title><g id="BACKGROUND"><rect class="cls-1" x="-73" width="500" height="500"/></g><g id="OBJECTS"><rect class="cls-1" width="304" height="500"/><polygon class="cls-2" points="223.44 43.58 218.27 45.07 214.09 48.45 211.08 43.99 206.57 41.06 209.88 36.83 211.28 31.63 216.33 33.47 221.7 33.19 221.51 38.56 223.44 43.58"/><polygon class="cls-3" points="251.73 95.52 247.63 92.04 242.5 90.44 244.54 85.47 244.48 80.09 249.84 80.5 254.94 78.78 256.21 84 259.42 88.32 254.84 91.14 251.73 95.52"/><polygon class="cls-2" points="228.2 376.8 223.03 378.28 218.86 381.67 215.85 377.21 211.34 374.28 214.65 370.04 216.04 364.85 221.09 366.69 226.46 366.41 226.28 371.78 228.2 376.8"/><polygon class="cls-3" points="69.1 363.45 63.93 364.93 59.75 368.31 56.74 363.86 52.24 360.93 55.55 356.69 56.94 351.5 61.99 353.33 67.36 353.05 67.17 358.43 69.1 363.45"/><polygon class="cls-2" points="169.05 424.49 163.88 425.97 159.71 429.36 156.7 424.9 152.19 421.97 155.5 417.73 156.89 412.54 161.94 414.38 167.31 414.1 167.13 419.47 169.05 424.49"/><polygon class="cls-3" points="283.79 458.81 278.62 460.29 274.44 463.67 271.43 459.21 266.92 456.28 270.23 452.05 271.62 446.85 276.68 448.69 282.05 448.41 281.86 453.79 283.79 458.81"/><polygon class="cls-3" points="74.16 83.22 68.93 81.99 63.63 82.91 63.18 77.56 60.67 72.8 65.62 70.71 69.37 66.86 72.89 70.92 77.71 73.3 74.93 77.9 74.16 83.22"/><polygon class="cls-2" points="39.41 92.97 41.95 97.7 46.14 101.07 42.42 104.95 40.51 109.98 35.67 107.64 30.3 107.38 31.03 102.05 29.62 96.86 34.91 95.91 39.41 92.97"/><polygon class="cls-3" points="224.77 216.56 220.66 213.1 215.52 211.51 217.54 206.53 217.47 201.15 222.83 201.54 227.91 199.8 229.2 205.02 232.43 209.32 227.86 212.16 224.77 216.56"/><polygon class="cls-3" points="78.5 245.64 74.39 242.17 69.25 240.59 71.28 235.61 71.2 230.23 76.56 230.62 81.65 228.88 82.94 234.1 86.16 238.4 81.6 241.24 78.5 245.64"/><polygon class="cls-3" points="24.02 291.06 19.9 287.59 14.77 286.01 16.79 281.03 16.71 275.65 22.07 276.04 27.16 274.3 28.45 279.52 31.68 283.82 27.11 286.66 24.02 291.06"/><polygon class="cls-2" points="271.92 291.06 267.81 287.59 262.67 286.01 264.7 281.03 264.62 275.65 269.98 276.04 275.06 274.3 276.36 279.52 279.58 283.82 275.01 286.66 271.92 291.06"/><polygon class="cls-2" points="97.66 37.01 95.62 35.29 93.07 34.5 94.07 32.03 94.03 29.36 96.7 29.55 99.23 28.68 99.87 31.28 101.47 33.41 99.2 34.83 97.66 37.01"/><polygon class="cls-3" points="16 149.96 13.45 150.76 11.42 152.5 9.87 150.33 7.59 148.93 9.18 146.78 9.8 144.19 12.33 145.03 14.99 144.82 14.97 147.49 16 149.96"/><polygon class="cls-2" points="49.05 197.08 46.51 197.88 44.48 199.62 42.92 197.45 40.65 196.06 42.23 193.91 42.85 191.31 45.39 192.15 48.05 191.94 48.03 194.61 49.05 197.08"/><polygon class="cls-2" points="288.04 143.29 285.49 144.1 283.46 145.84 281.91 143.66 279.63 142.27 281.21 140.12 281.83 137.52 284.37 138.37 287.03 138.15 287.01 140.82 288.04 143.29"/><polygon class="cls-2" points="271.13 370.71 268.58 371.52 266.55 373.26 265 371.09 262.72 369.69 264.3 367.54 264.92 364.94 267.46 365.79 270.12 365.58 270.1 368.25 271.13 370.71"/><polygon class="cls-3" points="169.03 342.93 166.48 343.73 164.46 345.47 162.9 343.3 160.62 341.9 162.21 339.75 162.83 337.16 165.36 338 168.03 337.79 168.01 340.46 169.03 342.93"/><polygon class="cls-3" points="194.68 456.17 192.14 456.98 190.11 458.71 188.55 456.54 186.27 455.15 187.86 453 188.48 450.4 191.01 451.24 193.68 451.03 193.66 453.7 194.68 456.17"/><polygon class="cls-3" points="118.36 397.55 115.81 398.35 113.79 400.09 112.23 397.92 109.95 396.52 111.54 394.38 112.16 391.78 114.69 392.62 117.36 392.41 117.34 395.08 118.36 397.55"/><polygon class="cls-2" points="122.56 361.52 120.02 362.32 117.99 364.06 116.44 361.89 114.16 360.49 115.74 358.34 116.36 355.75 118.9 356.59 121.56 356.38 121.54 359.05 122.56 361.52"/><polygon class="cls-2" points="18.97 405.86 16.43 406.67 14.39 408.4 12.84 406.23 10.56 404.84 12.15 402.69 12.77 400.09 15.3 400.94 17.97 400.72 17.95 403.39 18.97 405.86"/><polygon class="cls-3" points="69.19 430.87 66.64 431.68 64.61 433.42 63.06 431.25 60.78 429.85 62.37 427.7 62.99 425.1 65.52 425.95 68.18 425.74 68.17 428.41 69.19 430.87"/><polygon class="cls-2" points="223.98 426.71 221.43 427.52 219.4 429.26 217.85 427.09 215.57 425.69 217.15 423.54 217.77 420.95 220.31 421.79 222.97 421.58 222.95 424.25 223.98 426.71"/><polygon class="cls-3" points="164.83 54.81 162.28 55.61 160.25 57.35 158.7 55.18 156.42 53.78 158 51.63 158.62 49.04 161.16 49.88 163.82 49.67 163.8 52.34 164.83 54.81"/><polygon class="cls-3" points="135.58 111.59 133.03 112.4 131 114.14 129.45 111.96 127.17 110.57 128.75 108.42 129.37 105.82 131.91 106.67 134.57 106.45 134.55 109.13 135.58 111.59"/><polygon class="cls-2" points="31.63 26.14 29.08 26.95 27.05 28.68 25.5 26.51 23.22 25.12 24.81 22.97 25.43 20.37 27.96 21.21 30.62 21 30.61 23.67 31.63 26.14"/><polygon class="cls-2" points="271.13 21.98 268.58 22.79 266.55 24.53 265 22.36 262.72 20.96 264.3 18.81 264.92 16.21 267.46 17.06 270.12 16.85 270.1 19.52 271.13 21.98"/></g></svg>