<?xml version="1.0" encoding="iso-8859-1"?>
<!-- Generator: Adobe Illustrator 19.0.0, SVG Export Plug-In . SVG Version: 6.00 Build 0)  -->
<svg version="1.1" id="Capa_1" xmlns="http://www.w3.org/2000/svg" xmlns:xlink="http://www.w3.org/1999/xlink" x="0px" y="0px"
	 viewBox="0 0 511.655 511.655" style="enable-background:new 0 0 511.655 511.655;" xml:space="preserve">
<path style="fill:#CCD1D9;" d="M112.473,94.393c2.641,3.516,1.922,8.477-1.602,11.195c-3.516,2.64-8.477,1.922-11.195-1.602
	c-2.641-3.516-1.922-8.555,1.593-11.195C104.793,90.151,109.832,90.87,112.473,94.393z"/>
<path style="fill:#FFFFFF;" d="M107.676,103.987c-2.641-3.516-1.922-8.555,1.594-11.195c0.281-0.211,0.617-0.266,0.914-0.438
	c-2.711-1.617-6.242-1.562-8.914,0.438c-3.515,2.641-4.234,7.68-1.593,11.195c2.507,3.25,6.882,3.984,10.304,2.023
	C109.121,105.495,108.332,104.831,107.676,103.987z"/>
<polygon style="fill:#656D78;" points="275.827,87.831 275.827,103.831 251.828,103.831 227.829,103.831 227.829,87.831 "/>
<path style="fill:#CCD1D9;" d="M402.3,92.792c3.523,2.641,4.164,7.68,1.523,11.195c-2.641,3.523-7.68,4.242-11.203,1.602
	c-3.516-2.719-4.234-7.68-1.516-11.195C393.745,90.87,398.784,90.151,402.3,92.792z"/>
<path style="fill:#FFCE54;" d="M421.346,147.267c7.039,5.281,8.477,15.281,3.117,22.406l-14.483,19.116l-51.038-38.483
	l-51.115-38.553l14.476-19.203c5.281-7.039,15.281-8.398,22.406-3.117L421.346,147.267z"/>
<path style="fill:#FFFFFF;" d="M399.042,103.987c-2.641-3.516-1.922-8.555,1.594-11.195c0.281-0.211,0.617-0.266,0.914-0.438
	c-2.711-1.617-6.242-1.562-8.914,0.438c-3.516,2.641-4.234,7.68-1.594,11.195c2.508,3.25,6.883,3.984,10.305,2.023
	C400.487,105.495,399.698,104.831,399.042,103.987z"/>
<g style="opacity:0.5;">
	<path style="fill:#FFFFFF;" d="M421.346,147.267l-76.638-57.835c-7.125-5.281-17.125-3.922-22.406,3.117l-2.656,3.516
		c5.289-2.75,11.914-2.445,17.062,1.367l76.639,57.834c7.038,5.281,8.476,15.281,3.117,22.406l-7.719,10.187l1.234,0.93
		l14.483-19.116C429.822,162.548,428.385,152.548,421.346,147.267z"/>
</g>
<path style="fill:#FFCE54;" d="M181.268,92.55l14.484,19.203l-51.124,38.553l-51.116,38.483l-14.476-19.116
	c-5.281-7.125-3.922-17.125,3.195-22.406l76.638-57.834C165.909,84.151,175.909,85.511,181.268,92.55z"/>
<g style="opacity:0.5;">
	<path style="fill:#FFFFFF;" d="M87.036,177.672c-5.281-7.125-3.922-17.125,3.195-22.406l76.638-57.834
		c5.109-3.836,11.758-4.125,17.078-1.328l-2.68-3.555c-5.359-7.039-15.359-8.398-22.398-3.117l-76.638,57.834
		c-7.117,5.281-8.477,15.281-3.195,22.406l14.476,19.116l1.234-0.93L87.036,177.672z"/>
</g>
<g>
	<path style="fill:#656D78;" d="M139.831,463.824l21.921-43.843c10.476,7.281,21.921,13.202,34.077,17.765l-0.078,0.078
		l-31.921,33.999C146.308,489.417,134.714,474.057,139.831,463.824z"/>
	<path style="fill:#656D78;" d="M341.981,420.138l21.843,43.687c5.117,10.233-6.477,25.593-23.999,7.999l-31.999-34.077
		c12.155-4.562,23.601-10.483,34.077-17.765L341.981,420.138z"/>
	<path style="fill:#656D78;" d="M259.827,287.829c0,2.156-0.883,4.156-2.32,5.594v0.078c-1.522,1.438-3.437,2.328-5.679,2.328
		c-4.398,0-8-3.609-8-8c0-4.484,3.602-8,8-8C256.226,279.829,259.827,283.345,259.827,287.829z"/>
</g>
<g style="opacity:0.3;">
	<path style="fill:#FFFFFF;" d="M251.828,287.829c0-2.969,1.656-5.406,4-6.781c-1.195-0.703-2.516-1.219-4-1.219
		c-4.398,0-8,3.516-8,8c0,4.391,3.602,8,8,8c1.516,0,2.82-0.516,4.016-1.219C253.492,293.204,251.828,290.751,251.828,287.829z"/>
</g>
<path style="fill:#ED5565;" d="M307.826,437.746c-17.437,6.469-36.319,10.078-55.998,10.078s-38.561-3.609-55.998-10.078
	c-12.156-4.562-23.601-10.483-34.077-17.765c-42.241-28.718-69.92-77.279-69.92-132.152c0-51.206,24.078-96.798,61.522-126
	c27.116-21.359,61.271-33.999,98.473-33.999c37.116,0,71.356,12.64,98.474,33.921c37.443,29.28,61.521,74.873,61.521,126.078
	c0,54.873-27.68,103.435-69.92,132.152C331.427,427.263,319.981,433.183,307.826,437.746z M319.825,170.071
	c-19.999-11.602-43.201-18.242-67.997-18.242s-47.999,6.641-67.998,18.242c-20.64,11.913-37.843,29.116-49.757,49.756
	c-11.601,20-18.241,43.202-18.241,68.002c0,24.796,6.641,47.999,18.241,67.998c11.914,20.64,29.117,37.843,49.757,49.748
	c19.999,11.609,43.202,18.25,67.998,18.25s47.998-6.641,67.997-18.25c20.641-11.905,37.843-29.108,49.757-49.748
	c11.601-19.999,18.241-43.202,18.241-67.998c0-24.8-6.641-48.002-18.241-68.002C357.668,199.187,340.466,181.984,319.825,170.071z"
	/>
<g style="opacity:0.3;">
	<path style="fill:#FFFFFF;" d="M203.829,437.746c-12.156-4.562-23.601-10.483-34.077-17.765
		c-42.241-28.718-69.919-77.279-69.919-132.152c0-51.206,24.077-96.798,61.521-126c26.132-20.585,58.834-32.952,94.474-33.827
		c-1.344-0.039-2.656-0.172-4-0.172c-37.202,0-71.357,12.64-98.473,33.999c-37.444,29.202-61.522,74.794-61.522,126
		c0,54.873,27.679,103.435,69.92,132.152c10.476,7.281,21.921,13.202,34.077,17.765c17.437,6.469,36.319,10.078,55.998,10.078
		c1.352,0,2.656-0.156,4-0.188C237.602,447.183,220.071,443.777,203.829,437.746z"/>
</g>
<g style="opacity:0.2;">
	<path d="M299.826,437.746c12.156-4.562,23.601-10.483,34.077-17.765c42.241-28.718,69.92-77.279,69.92-132.152
		c0-51.206-24.077-96.798-61.521-126c-26.133-20.585-58.834-32.952-94.473-33.827c1.344-0.039,2.656-0.172,4-0.172
		c37.202,0,71.356,12.64,98.474,33.999c37.443,29.202,61.521,74.794,61.521,126c0,54.873-27.68,103.435-69.92,132.152
		c-10.477,7.281-21.922,13.202-34.077,17.765c-17.437,6.469-36.319,10.078-55.998,10.078c-1.351,0-2.656-0.156-4-0.188
		C266.054,447.183,283.585,443.777,299.826,437.746z"/>
</g>
<g style="opacity:0.2;">
	<path d="M161.753,419.981l-2.938,5.875c0.984,0.703,1.938,1.438,2.938,2.124c8.89,6.172,18.515,11.312,28.647,15.547l5.352-5.703
		l0.078-0.078C183.674,433.183,172.229,427.263,161.753,419.981z"/>
</g>
<g style="opacity:0.2;">
	<path d="M184.963,440.933l-29.132,30.89c-3.976,4-7.632,6.219-10.875,7.266c4.5,1.844,11.101,0.547,18.875-7.266l26.569-28.296
		C188.533,442.746,186.791,441.777,184.963,440.933z"/>
</g>
<g style="opacity:0.2;">
	<path style="fill:#FFFFFF;" d="M147.831,463.824l16.976-33.969c-0.992-0.656-2.07-1.203-3.054-1.875
		c-1-0.687-1.953-1.421-2.938-2.124l-18.984,37.968c-3.953,7.905,2.094,18.812,13.125,15.265
		C147.324,476.776,144.988,469.511,147.831,463.824z"/>
</g>
<g style="opacity:0.2;">
	<path d="M341.903,419.981l2.938,5.875c-0.984,0.703-1.938,1.438-2.938,2.124c-8.891,6.172-18.516,11.312-28.647,15.547
		l-5.352-5.703l-0.078-0.078C319.981,433.183,331.427,427.263,341.903,419.981z"/>
</g>
<g style="opacity:0.2;">
	<path style="fill:#FFFFFF;" d="M318.692,440.933l29.133,30.89c3.977,4,7.633,6.219,10.874,7.266
		c-4.499,1.844-11.101,0.547-18.874-7.266l-26.569-28.296C315.123,442.746,316.864,441.777,318.692,440.933z"/>
</g>
<g style="opacity:0.2;">
	<path d="M355.825,463.824l-16.977-33.969c0.992-0.656,2.07-1.203,3.055-1.875c1-0.687,1.953-1.421,2.938-2.124l18.983,37.968
		c3.953,7.905-2.094,18.812-13.124,15.265C356.332,476.776,358.668,469.511,355.825,463.824z"/>
</g>
<path style="fill:#E6E9ED;" d="M251.828,151.829c24.796,0,47.998,6.641,67.997,18.242c20.641,11.913,37.843,29.116,49.757,49.756
	c11.601,20,18.241,43.202,18.241,68.002c0,24.796-6.641,47.999-18.241,67.998c-11.914,20.64-29.116,37.843-49.757,49.748
	c-19.999,11.609-43.201,18.25-67.997,18.25s-47.999-6.641-67.998-18.25c-20.64-11.905-37.843-29.108-49.757-49.748
	c-11.601-19.999-18.241-43.202-18.241-67.998c0-24.8,6.641-48.002,18.241-68.002c11.914-20.64,29.117-37.843,49.757-49.756
	C203.829,158.47,227.032,151.829,251.828,151.829z M251.828,279.829c-4.398,0-8,3.516-8,8c0,4.391,3.602,8,8,8
	c2.242,0,4.156-0.891,5.679-2.328v-0.078c1.438-1.438,2.32-3.438,2.32-5.594C259.827,283.345,256.226,279.829,251.828,279.829z"/>
<g style="opacity:0.2;">
	<path d="M191.83,405.575c-20.64-11.905-37.842-29.108-49.756-49.748c-11.601-19.999-18.242-43.202-18.242-67.998
		c0-24.8,6.641-48.002,18.242-68.002c11.914-20.64,29.116-37.843,49.756-49.756c18.914-10.977,40.717-17.43,63.998-18.109
		c-1.336-0.039-2.656-0.133-4-0.133c-24.796,0-47.999,6.641-67.998,18.242c-20.64,11.913-37.843,29.116-49.757,49.756
		c-11.601,20-18.241,43.202-18.241,68.002c0,24.796,6.641,47.999,18.241,67.998c11.914,20.64,29.117,37.843,49.757,49.748
		c19.999,11.609,43.202,18.25,67.998,18.25c1.344,0,2.664-0.094,4-0.141C232.547,423.013,210.744,416.559,191.83,405.575z"/>
</g>
<g style="opacity:0.2;">
	<path d="M311.826,405.575c20.64-11.905,37.843-29.108,49.756-49.748c11.602-19.999,18.241-43.202,18.241-67.998
		c0-24.8-6.64-48.002-18.241-68.002c-11.913-20.64-29.116-37.843-49.756-49.756c-18.914-10.977-40.718-17.43-63.998-18.109
		c1.336-0.039,2.656-0.133,4-0.133c24.796,0,47.998,6.641,67.997,18.242c20.641,11.913,37.843,29.116,49.757,49.756
		c11.601,20,18.241,43.202,18.241,68.002c0,24.796-6.641,47.999-18.241,67.998c-11.914,20.64-29.116,37.843-49.757,49.748
		c-19.999,11.609-43.201,18.25-67.997,18.25c-1.343,0-2.664-0.094-4-0.141C271.108,423.013,292.912,416.559,311.826,405.575z"/>
</g>
<g style="opacity:0.3;">
	<rect x="227.828" y="87.828" style="fill:#FFFFFF;" width="8" height="17.758"/>
</g>
<g style="opacity:0.2;">
	<rect x="267.828" y="87.828" width="8" height="17.758"/>
</g>
<g>
	<path style="fill:#3A3847;" d="M251.828,451.824c-19.632,0-38.936-3.484-57.389-10.328c-12.609-4.734-24.375-10.875-34.968-18.233
		c-44.842-30.483-71.638-81.123-71.638-135.434c0-50.823,22.983-97.899,63.061-129.156c28.937-22.788,63.842-34.843,100.934-34.843
		c37.046,0,71.958,12.023,100.942,34.772c40.068,31.335,63.053,78.435,63.053,129.227c0,54.311-26.797,104.95-71.67,135.449
		c-10.562,7.343-22.328,13.483-34.921,18.202C290.765,448.34,271.46,451.824,251.828,451.824z M251.828,131.83
		c-35.28,0-68.474,11.46-95.997,33.14c-38.139,29.741-59.998,74.513-59.998,122.859c0,51.655,25.484,99.825,68.169,128.84
		c10.086,7.016,21.258,12.827,33.233,17.327c35.093,13.031,74.076,13.047,109.2,0c11.96-4.5,23.132-10.312,33.187-17.296
		c42.717-29.046,68.201-77.216,68.201-128.871c0-48.315-21.867-93.118-59.982-122.93C320.263,143.267,287.069,131.83,251.828,131.83
		z"/>
	<path style="fill:#3A3847;" d="M51.912,374.545c-1.578,0-3.078-0.953-3.703-2.5c-21.671-53.436-21.694-114.766-0.086-168.279
		c0.836-2.047,3.164-3.023,5.211-2.211c2.047,0.828,3.039,3.164,2.211,5.21c-20.843,51.6-20.82,110.75,0.07,162.28
		c0.836,2.047-0.156,4.375-2.203,5.203C52.92,374.451,52.412,374.545,51.912,374.545z"/>
	<path style="fill:#3A3847;" d="M459.821,374.545c-0.5,0-1.008-0.094-1.5-0.297c-2.047-0.828-3.039-3.156-2.203-5.203
		c20.875-51.498,20.844-110.648-0.078-162.28c-0.836-2.047,0.156-4.375,2.203-5.203c2.039-0.859,4.375,0.148,5.203,2.203
		c21.71,53.537,21.733,114.875,0.078,168.279C462.899,373.592,461.399,374.545,459.821,374.545z"/>
	<path style="fill:#3A3847;" d="M35.835,414.778c-1.398,0-2.758-0.734-3.492-2.047c-43.124-77.028-43.124-172.78,0-249.895
		c1.078-1.945,3.523-2.617,5.445-1.539c1.93,1.078,2.617,3.516,1.539,5.445c-41.78,74.701-41.78,167.46,0,242.082
		c1.078,1.938,0.391,4.375-1.539,5.453C37.17,414.622,36.498,414.778,35.835,414.778z"/>
	<path style="fill:#3A3847;" d="M475.821,414.778c-0.664,0-1.336-0.156-1.953-0.5c-1.93-1.078-2.617-3.516-1.539-5.453
		c41.779-74.622,41.779-167.381,0-242.082c-1.078-1.93-0.391-4.367,1.539-5.445c1.922-1.07,4.359-0.398,5.445,1.539
		c43.123,77.115,43.123,172.866,0,249.895C478.579,414.044,477.22,414.778,475.821,414.778z"/>
	<path style="fill:#3A3847;" d="M251.828,427.824c-24.616,0-48.827-6.499-70.005-18.78c-21.234-12.265-38.952-29.983-51.209-51.217
		c-12.289-21.171-18.781-45.39-18.781-69.998c0-24.62,6.492-48.831,18.781-70.01c12.257-21.233,29.976-38.952,51.217-51.209
		c42.342-24.578,97.645-24.578,140.002,0c21.234,12.257,38.952,29.976,51.21,51.217c12.288,21.171,18.78,45.382,18.78,70.002
		c0,24.608-6.492,48.827-18.78,69.998c-12.258,21.233-29.976,38.952-51.218,51.217C300.654,421.325,276.444,427.824,251.828,427.824
		z M251.828,155.829c-23.21,0-46.03,6.125-65.99,17.703c-20.039,11.562-36.741,28.265-48.304,48.295
		c-11.578,19.968-17.702,42.784-17.702,66.002c0,23.202,6.125,46.03,17.702,65.982c11.562,20.046,28.265,36.749,48.296,48.312
		c39.936,23.155,92.067,23.155,131.987,0c20.039-11.562,36.742-28.266,48.304-48.296c11.578-19.968,17.702-42.796,17.702-65.998
		c0-23.218-6.124-46.034-17.702-65.994c-11.562-20.038-28.265-36.741-48.296-48.303
		C297.857,161.954,275.038,155.829,251.828,155.829z"/>
	<path style="fill:#3A3847;" d="M251.828,299.828c-6.617,0-12-5.39-12-11.999c0-6.625,5.383-11.999,12-11.999
		c6.616,0,11.999,5.374,11.999,11.999c0,2.875-1.078,5.703-2.984,7.875c-0.164,0.25-0.359,0.5-0.594,0.703
		C257.89,298.641,254.976,299.828,251.828,299.828z M251.828,283.829c-2.242,0-4,1.75-4,4c0,3.141,3.969,5.141,6.57,3.078
		c0.086-0.094,0.172-0.203,0.273-0.297c0.734-0.75,1.156-1.75,1.156-2.781C255.828,285.579,254.07,283.829,251.828,283.829z"/>
	<path style="fill:#3A3847;" d="M251.828,163.829c-2.21,0-4-1.789-4-4v-8c0-2.211,1.789-4,4-4s4,1.789,4,4v8
		C255.828,162.04,254.039,163.829,251.828,163.829z"/>
	<path style="fill:#3A3847;" d="M251.828,427.824c-2.21,0-4-1.796-4-3.999v-8c0-2.219,1.789-4,4-4s4,1.781,4,4v8
		C255.828,426.028,254.039,427.824,251.828,427.824z"/>
	<path style="fill:#3A3847;" d="M187.83,180.945c-1.375,0-2.71-0.711-3.46-1.992l-4-6.875c-0.352-0.609-0.539-1.304-0.539-2.007
		c0-2.211,1.789-4.047,4-4.047c1.68,0,3.117,1.016,3.711,2.469l3.75,6.445c1.109,1.906,0.461,4.352-1.453,5.468
		C189.205,180.773,188.517,180.945,187.83,180.945z"/>
	<path style="fill:#3A3847;" d="M319.825,409.575c-1.383,0-2.727-0.719-3.469-2l-3.999-6.968c-1.102-1.906-0.438-4.359,1.477-5.453
		c1.898-1.109,4.351-0.453,5.46,1.469l4,6.969c1.102,1.905,0.438,4.358-1.477,5.452
		C321.192,409.403,320.505,409.575,319.825,409.575z"/>
	<path style="fill:#3A3847;" d="M140.949,227.827c-0.688,0-1.375-0.172-2.008-0.539l-6.875-4c-1.914-1.117-2.562-3.562-1.453-5.469
		c1.125-1.922,3.562-2.555,5.468-1.453l6.875,4c1.914,1.117,2.562,3.562,1.453,5.469
		C143.66,227.116,142.324,227.827,140.949,227.827z"/>
	<path style="fill:#3A3847;" d="M369.582,359.827c-0.688,0-1.375-0.172-2.008-0.547l-6.875-4c-1.914-1.109-2.562-3.562-1.453-5.469
		c1.117-1.922,3.562-2.547,5.469-1.453l6.875,4c1.914,1.125,2.562,3.562,1.453,5.469
		C372.293,359.108,370.957,359.827,369.582,359.827z"/>
	<path style="fill:#3A3847;" d="M123.832,291.829h-8c-2.211,0-4-1.797-4-4c0-2.219,1.789-4,4-4h8c2.211,0,4,1.781,4,4
		C127.832,290.032,126.043,291.829,123.832,291.829z"/>
	<path style="fill:#3A3847;" d="M387.823,291.829h-8c-2.21,0-3.999-1.797-3.999-4c0-2.219,1.789-4,3.999-4h8c2.211,0,4,1.781,4,4
		C391.823,290.032,390.034,291.829,387.823,291.829z"/>
	<path style="fill:#3A3847;" d="M134.074,359.827c-1.375,0-2.71-0.719-3.46-2c-1.109-1.906-0.461-4.344,1.453-5.469l6.875-4
		c1.891-1.094,4.336-0.469,5.469,1.453c1.109,1.906,0.461,4.359-1.453,5.469l-6.875,4
		C135.449,359.655,134.761,359.827,134.074,359.827z"/>
	<path style="fill:#3A3847;" d="M362.621,227.827c-1.383,0-2.727-0.719-3.469-2.008c-1.102-1.914-0.438-4.359,1.477-5.461l6.961-4
		c1.891-1.102,4.352-0.453,5.461,1.477c1.102,1.914,0.438,4.359-1.477,5.461l-6.961,4
		C363.988,227.655,363.301,227.827,362.621,227.827z"/>
	<path style="fill:#3A3847;" d="M183.83,409.575c-0.68,0-1.367-0.172-1.992-0.531c-1.914-1.094-2.578-3.547-1.477-5.452l4-6.969
		c1.102-1.922,3.554-2.578,5.46-1.469c1.914,1.094,2.578,3.547,1.477,5.453l-4,6.968
		C186.557,408.856,185.213,409.575,183.83,409.575z"/>
	<path style="fill:#3A3847;" d="M315.825,180.945c-0.687,0-1.374-0.172-2.007-0.539c-1.914-1.117-2.562-3.562-1.453-5.468
		l3.897-6.703c0.664-1.305,2.016-2.211,3.562-2.211c2.211,0,4,1.75,4,3.961c0,0.703-0.188,1.484-0.539,2.093l-4,6.875
		C318.536,180.234,317.2,180.945,315.825,180.945z"/>
	<path style="fill:#3A3847;" d="M251.828,283.829c-2.21,0-4-1.797-4-4v-96.001c0-2.211,1.789-4,4-4s4,1.789,4,4v96.001
		C255.828,282.032,254.039,283.829,251.828,283.829z"/>
	<path style="fill:#3A3847;" d="M307.826,347.827c-1.023,0-2.047-0.391-2.828-1.172l-50.318-50.326
		c-0.75-0.75-1.172-1.766-1.172-2.828c0-2.203,1.789-4.031,3.999-4.031c1.32,0,2.492,0.625,3.219,1.594L310.655,341
		c1.562,1.562,1.562,4.094,0,5.656C309.873,347.436,308.849,347.827,307.826,347.827z"/>
	<path style="fill:#3A3847;" d="M181.268,96.55c-1.203,0-2.398-0.547-3.18-1.578c-4-5.242-11.547-6.312-16.82-2.336
		c-1.758,1.32-4.266,0.969-5.601-0.805c-1.32-1.766-0.961-4.273,0.804-5.602c8.773-6.585,21.328-4.835,27.976,3.898
		c1.344,1.758,1,4.266-0.758,5.602C182.963,96.284,182.112,96.55,181.268,96.55z"/>
	<path style="fill:#3A3847;" d="M195.752,115.752c-1.211,0-2.406-0.547-3.195-1.594l-14.484-19.203
		c-1.328-1.758-0.977-4.266,0.789-5.602c1.758-1.312,4.266-0.984,5.602,0.789l14.483,19.203c1.328,1.758,0.977,4.266-0.789,5.602
		C197.439,115.487,196.595,115.752,195.752,115.752z"/>
	<path style="fill:#3A3847;" d="M79.036,173.672c-1.219,0-2.43-0.562-3.211-1.617c-6.602-8.898-4.789-21.46,4.023-27.999
		c1.781-1.312,4.289-0.945,5.594,0.828c1.32,1.773,0.945,4.281-0.828,5.593c-5.273,3.914-6.336,11.461-2.367,16.812
		c1.32,1.773,0.945,4.281-0.828,5.593C80.701,173.414,79.865,173.672,79.036,173.672z"/>
	<path style="fill:#3A3847;" d="M93.513,192.789c-1.203,0-2.398-0.547-3.187-1.586l-14.477-19.117
		c-1.336-1.757-0.992-4.265,0.773-5.601c1.742-1.328,4.258-1,5.602,0.773L96.7,186.374c1.336,1.758,0.992,4.266-0.773,5.602
		C95.208,192.523,94.356,192.789,93.513,192.789z"/>
	<path style="fill:#3A3847;" d="M93.513,192.789c-1.211,0-2.406-0.547-3.195-1.594c-1.328-1.766-0.977-4.273,0.789-5.602
		l102.239-77.037c1.75-1.312,4.265-0.992,5.601,0.789c1.328,1.758,0.977,4.273-0.789,5.602L95.919,191.984
		C95.2,192.523,94.356,192.789,93.513,192.789z"/>
	<path style="fill:#3A3847;" d="M82.232,151.266c-1.211,0-2.406-0.547-3.195-1.594c-1.328-1.758-0.977-4.265,0.789-5.601
		l76.638-57.834c1.75-1.312,4.258-0.992,5.602,0.789c1.328,1.758,0.977,4.266-0.789,5.602l-76.639,57.834
		C83.919,151.001,83.076,151.266,82.232,151.266z"/>
	<path style="fill:#3A3847;" d="M153.269,165.751c-1.211,0-2.406-0.547-3.195-1.594l-8.641-11.445
		c-1.328-1.758-0.977-4.266,0.789-5.601c1.75-1.312,4.266-0.992,5.602,0.789l8.64,11.445c1.328,1.758,0.977,4.266-0.789,5.602
		C154.956,165.485,154.113,165.751,153.269,165.751z"/>
	<path style="fill:#3A3847;" d="M119.911,121.588c-1.211,0-2.406-0.547-3.195-1.594l-9.039-12c-1.328-1.765-0.977-4.273,0.789-5.601
		c1.75-1.312,4.258-0.992,5.602,0.789l9.039,12c1.328,1.765,0.976,4.273-0.789,5.601
		C121.598,121.322,120.754,121.588,119.911,121.588z"/>
	<path style="fill:#3A3847;" d="M106.114,111.182L106.114,111.182c-3.773,0-7.273-1.734-9.601-4.75
		c-1.953-2.602-2.758-5.758-2.305-8.938s2.109-5.984,4.664-7.898c5.093-3.828,13-2.68,16.804,2.398
		c3.914,5.211,2.859,12.734-2.359,16.757C111.192,110.354,108.715,111.182,106.114,111.182z M106.059,95.198
		c-0.875,0-1.695,0.273-2.391,0.797c-0.844,0.633-1.391,1.57-1.547,2.633c-0.148,1.062,0.117,2.109,0.75,2.961
		c0.773,0.992,1.969,1.594,3.242,1.594l0,0c0.852,0,1.664-0.273,2.359-0.789c1.758-1.359,2.125-3.836,0.805-5.602
		C108.512,95.776,107.34,95.198,106.059,95.198z"/>
	<path style="fill:#3A3847;" d="M322.302,96.55c-0.836,0-1.68-0.258-2.398-0.797c-1.766-1.328-2.125-3.836-0.805-5.602
		c6.57-8.75,19.125-10.515,27.992-3.93c1.773,1.312,2.148,3.82,0.828,5.594c-1.312,1.773-3.812,2.141-5.594,0.828
		c-5.359-3.969-12.906-2.938-16.82,2.305C324.716,95.995,323.513,96.55,322.302,96.55z"/>
	<path style="fill:#3A3847;" d="M307.826,115.752c-0.844,0-1.688-0.266-2.406-0.805c-1.766-1.328-2.117-3.836-0.789-5.602
		l14.476-19.203c1.336-1.773,3.852-2.102,5.602-0.789c1.766,1.328,2.117,3.836,0.789,5.602l-14.476,19.203
		C310.232,115.205,309.037,115.752,307.826,115.752z"/>
	<path style="fill:#3A3847;" d="M424.463,173.672c-0.844,0-1.688-0.258-2.406-0.805c-1.766-1.328-2.117-3.835-0.789-5.601
		c1.945-2.594,2.773-5.773,2.32-8.945c-0.445-3.156-2.094-5.945-4.64-7.852c-1.766-1.328-2.125-3.835-0.805-5.601
		c1.336-1.766,3.843-2.117,5.601-0.805c4.258,3.195,7.016,7.859,7.766,13.132c0.75,5.289-0.617,10.578-3.852,14.882
		C426.877,173.125,425.674,173.672,424.463,173.672z"/>
	<path style="fill:#3A3847;" d="M409.979,192.789c-0.844,0-1.695-0.266-2.414-0.812c-1.766-1.336-2.109-3.844-0.773-5.602
		l14.483-19.116c1.344-1.773,3.852-2.102,5.602-0.773c1.766,1.336,2.109,3.844,0.773,5.601l-14.483,19.117
		C412.378,192.242,411.182,192.789,409.979,192.789z"/>
	<path style="fill:#3A3847;" d="M409.979,192.789c-0.844,0-1.688-0.266-2.406-0.805L305.42,114.948
		c-1.766-1.336-2.117-3.844-0.789-5.602c1.336-1.781,3.844-2.101,5.602-0.789l102.153,77.037c1.766,1.328,2.117,3.836,0.789,5.602
		C412.386,192.242,411.19,192.789,409.979,192.789z"/>
	<path style="fill:#3A3847;" d="M421.346,151.266c-0.844,0-1.687-0.266-2.405-0.805l-76.639-57.833
		c-1.766-1.336-2.117-3.844-0.789-5.602c1.336-1.781,3.852-2.102,5.602-0.789l76.638,57.834c1.766,1.336,2.117,3.843,0.789,5.601
		C423.752,150.72,422.557,151.266,421.346,151.266z"/>
	<path style="fill:#3A3847;" d="M350.302,165.751c-0.844,0-1.688-0.266-2.406-0.805c-1.766-1.336-2.117-3.844-0.789-5.602
		l8.641-11.445c1.335-1.781,3.851-2.101,5.601-0.789c1.766,1.335,2.117,3.843,0.789,5.601l-8.64,11.445
		C352.708,165.204,351.513,165.751,350.302,165.751z"/>
	<path style="fill:#3A3847;" d="M383.581,121.588c-0.844,0-1.688-0.266-2.406-0.805c-1.765-1.328-2.116-3.836-0.789-5.601l9.039-12
		c1.336-1.781,3.852-2.102,5.602-0.789c1.766,1.328,2.117,3.836,0.789,5.601l-9.039,12
		C385.987,121.041,384.792,121.588,383.581,121.588z"/>
	<path style="fill:#3A3847;" d="M397.409,111.182c-2.617,0-5.102-0.828-7.188-2.391c-5.305-4.101-6.305-11.64-2.281-16.843
		c3.742-5.008,11.68-6.18,16.758-2.352c2.531,1.891,4.172,4.672,4.625,7.828c0.453,3.195-0.359,6.383-2.305,8.961
		C404.776,109.385,401.182,111.182,397.409,111.182z M397.518,95.198c-1.281,0-2.453,0.586-3.211,1.594
		c-0.688,0.883-0.961,1.914-0.82,2.953c0.148,1.055,0.703,2.008,1.578,2.68c1.609,1.195,4.281,0.875,5.555-0.836
		c0.664-0.875,0.938-1.953,0.781-3.039c-0.148-1.031-0.68-1.945-1.5-2.555C399.206,95.472,398.386,95.198,397.518,95.198z"/>
	<path style="fill:#3A3847;" d="M171.83,67.676c-2.211,0-4-1.789-4-4V47.832c0-2.211,1.789-4,4-4s4,1.789,4,4v15.843
		C175.83,65.887,174.041,67.676,171.83,67.676z"/>
	<path style="fill:#3A3847;" d="M171.83,51.832c-2.211,0-4-1.789-4-4c0-11.031,8.969-20,20-20c2.211,0,4,1.789,4,4
		c0,2.211-1.789,4-4,4c-6.726,0-12,5.273-12,12C175.83,50.043,174.041,51.832,171.83,51.832z"/>
	<path style="fill:#3A3847;" d="M315.825,35.833H187.83c-2.21,0-4-1.789-4-4s1.789-4,4-4h127.995c2.211,0,4,1.789,4,4
		C319.825,34.044,318.036,35.833,315.825,35.833z"/>
	<path style="fill:#3A3847;" d="M131.832,97.831c-1.211,0-2.414-0.547-3.195-1.594c-1.328-1.766-0.977-4.273,0.789-5.602
		l39.991-30.155c1.773-1.305,4.273-0.977,5.609,0.781c1.328,1.766,0.977,4.273-0.781,5.609l-40.007,30.156
		C133.519,97.573,132.675,97.831,131.832,97.831z"/>
	<path style="fill:#3A3847;" d="M331.825,67.676c-2.211,0-4-1.789-4-4V47.832c0-2.211,1.789-4,4-4s4,1.789,4,4v15.843
		C335.825,65.887,334.036,67.676,331.825,67.676z"/>
	<path style="fill:#3A3847;" d="M331.825,51.832c-2.211,0-4-1.789-4-4c0-6.726-5.273-12-12-12c-2.21,0-3.999-1.789-3.999-4
		s1.789-4,3.999-4c11.031,0,20,8.969,20,20C335.825,50.043,334.036,51.832,331.825,51.832z"/>
	<path style="fill:#3A3847;" d="M371.824,97.831c-0.844,0-1.688-0.266-2.406-0.805l-39.999-30.155
		c-1.766-1.336-2.117-3.844-0.789-5.602c1.344-1.781,3.844-2.094,5.602-0.789l39.999,30.155c1.766,1.328,2.117,3.836,0.789,5.602
		C374.23,97.284,373.035,97.831,371.824,97.831z"/>
	<path style="fill:#3A3847;" d="M251.828,131.83c-2.21,0-4-1.789-4-4v-23.999c0-2.211,1.789-4,4-4s4,1.789,4,4v23.999
		C255.828,130.041,254.039,131.83,251.828,131.83z"/>
	<path style="fill:#3A3847;" d="M275.827,107.831h-47.998c-2.211,0-4-1.789-4-4v-16c0-2.211,1.789-4,4-4h47.998c2.211,0,4,1.789,4,4
		v16C279.827,106.042,278.038,107.831,275.827,107.831z M231.828,99.831h39.999v-8h-39.999V99.831z"/>
	<path style="fill:#3A3847;" d="M163.831,475.823c-0.984,0-1.969-0.359-2.734-1.094c-1.617-1.5-1.695-4.031-0.18-5.641
		l31.921-33.999c1.523-1.625,4.054-1.688,5.648-0.188c1.617,1.516,1.695,4.047,0.18,5.656l-31.921,33.999
		C165.955,475.401,164.893,475.823,163.831,475.823z"/>
	<path style="fill:#3A3847;" d="M139.831,467.824c-0.602,0-1.211-0.141-1.789-0.422c-1.977-1-2.773-3.391-1.789-5.375l21.921-43.843
		c0.992-1.969,3.391-2.766,5.367-1.781c1.976,0.984,2.773,3.391,1.789,5.359l-21.921,43.843
		C142.706,467.012,141.292,467.824,139.831,467.824z"/>
	<path style="fill:#3A3847;" d="M148.902,483.823c-4.117,0-6.969-1.641-8.227-2.547c-5.891-4.234-7.789-12.5-4.422-19.249
		c0.992-1.969,3.391-2.766,5.367-1.781s2.773,3.391,1.789,5.359c-1.578,3.155-0.711,7.28,1.93,9.171
		c3.617,2.609,9.469,0.438,15.656-5.781c1.562-1.577,4.093-1.562,5.656-0.016c1.57,1.562,1.57,4.094,0.016,5.656
		C159.511,481.823,153.441,483.823,148.902,483.823z"/>
	<path style="fill:#3A3847;" d="M339.825,475.823c-1.062,0-2.125-0.422-2.914-1.266l-31.999-34.077
		c-1.516-1.609-1.438-4.141,0.18-5.656c1.594-1.516,4.133-1.453,5.648,0.188l31.999,34.077c1.516,1.609,1.438,4.141-0.18,5.641
		C341.794,475.464,340.809,475.823,339.825,475.823z"/>
	<path style="fill:#3A3847;" d="M363.824,467.824c-1.461,0-2.875-0.812-3.578-2.219l-21.843-43.671
		c-0.984-1.984-0.188-4.375,1.789-5.375c1.977-0.984,4.375-0.172,5.367,1.797l21.843,43.671c0.984,1.984,0.188,4.375-1.789,5.375
		C365.035,467.683,364.426,467.824,363.824,467.824z"/>
	<path style="fill:#3A3847;" d="M354.755,483.823c-4.539,0-10.609-2-17.766-9.188c-1.555-1.562-1.555-4.094,0.016-5.656
		c1.562-1.546,4.094-1.562,5.656,0.016c6.195,6.219,12.039,8.391,15.655,5.781c2.641-1.891,3.508-6.016,1.93-9.171
		c-0.984-1.969-0.188-4.375,1.789-5.359s4.375-0.188,5.367,1.781c3.367,6.749,1.469,15.015-4.422,19.249
		C361.723,482.182,358.871,483.823,354.755,483.823z"/>
</g>
<g>
</g>
<g>
</g>
<g>
</g>
<g>
</g>
<g>
</g>
<g>
</g>
<g>
</g>
<g>
</g>
<g>
</g>
<g>
</g>
<g>
</g>
<g>
</g>
<g>
</g>
<g>
</g>
<g>
</g>
</svg>
