<svg id="PRINT" xmlns="http://www.w3.org/2000/svg" xmlns:xlink="http://www.w3.org/1999/xlink" viewBox="0 0 419.53 595.28"><defs><style>.cls-1{fill:none;}.cls-2{fill:#d9eff3;}.cls-3,.cls-6{fill:#fff;}.cls-3{opacity:0.5;}.cls-4{clip-path:url(#clip-path);}.cls-5{opacity:0.6;}</style><clipPath id="clip-path"><polygon class="cls-1" points="428.03 603.78 0 595.28 -8.5 -8.5 428.03 -8.5 428.03 603.78"/></clipPath></defs><title>Artboard 1</title><rect class="cls-2" x="-8.5" y="-8.5" width="436.54" height="612.29"/><path class="cls-3" d="M428,308.49c-7.48-2.81-24.1-4.37-32.57-4.37-.43,0-.86,0-1.29,0A62.39,62.39,0,0,0,279.9,284.25,44.14,44.14,0,0,0,205,289.64,78.93,78.93,0,0,0,163.51,284,62.37,62.37,0,0,0,45.63,298.35a44,44,0,0,0-24.49-7.41c-7.66,0-23.37,1.95-29.64,5.38v219H428Z"/><g class="cls-4"><g class="cls-5"><path class="cls-6" d="M278.19,45.48a11,11,0,0,0,.12-1.53,10.21,10.21,0,0,0-10.22-10.22c-.29,0-.58,0-.86,0a15,15,0,0,0-14.1-10c-.18,0-.35,0-.53,0a19.13,19.13,0,0,0-34.78,4.8,12.55,12.55,0,0,0-12.46,12.56,12.4,12.4,0,0,0,.78,4.32Z"/><path class="cls-6" d="M86.83,56A12,12,0,0,0,87,54.13,12.87,12.87,0,0,0,74.12,41.25c-.37,0-.73,0-1.09,0A18.83,18.83,0,0,0,55.28,28.72c-.22,0-.44,0-.66,0a24.08,24.08,0,0,0-43.79,6A15.77,15.77,0,0,0-3.89,56Z"/><path class="cls-6" d="M-12.86,186.05a17.39,17.39,0,0,1-.23-2.71,18.2,18.2,0,0,1,18.2-18.21c.52,0,1,0,1.54.08a26.6,26.6,0,0,1,25.09-17.79c.31,0,.62,0,.93.05A34.05,34.05,0,0,1,94.58,156a22.29,22.29,0,0,1,20.8,30Z"/><path class="cls-6" d="M337.46,88a12.23,12.23,0,0,1-.16-1.92,12.87,12.87,0,0,1,12.87-12.88c.37,0,.73,0,1.09,0A18.83,18.83,0,0,1,369,60.69l.66,0a24.09,24.09,0,0,1,43.79,6A15.78,15.78,0,0,1,428.18,88Z"/><path class="cls-6" d="M404.23,213.19a15.21,15.21,0,0,0,.2-2.35,15.76,15.76,0,0,0-15.76-15.75c-.45,0-.89,0-1.33.06a23,23,0,0,0-21.72-15.4c-.28,0-.54,0-.81,0a29.48,29.48,0,0,0-53.6,7.4,19.3,19.3,0,0,0-18,26Z"/></g></g><path class="cls-6" d="M-8.5,603.78H428V339.7c-6.27-3.44-22-5.39-29.64-5.39a44,44,0,0,0-24.49,7.42A62.37,62.37,0,0,0,256,327.35a80.75,80.75,0,0,0-10.37-.69A79,79,0,0,0,214.49,333a44.14,44.14,0,0,0-74.86-5.38,62.38,62.38,0,0,0-114.27,19.9l-1.29,0c-8.47,0-25.09,2-32.57,4.83Z"/></svg>